@@@@@@@@@@@@@@@@@@@@@@@@@@@@@@--www.tornster.com--@@@@@@@@@@@@@@@@@@@@@@@@@@@@@@
@                                                                              @
@ INFO:                                                                        @
@                                                                              @
@ General                                                                      @
@ Complete name                    : Demolition Man                            @
@ Genre                            : Action / Crime / Sci-Fi                   @
@ Format                           : AVI                                       @
@ Format/Info                      : Audio Video Interleave                    @
@ File size                        : 1.37 GiB                                  @
@ Duration                         : 1h 50mn                                   @
@ Overall bit rate                 : 1 775 Kbps                                @
@ Writing application              : VirtualDubMod 1.5.4.1 (build 2178/release)@
@ Writing library                  : VirtualDubMod build 2178/release          @
@                                                                              @
@ Video                                                                        @
@ Format                           : MPEG-4 Visual                             @
@ Format settings, BVOP            : Yes                                       @
@ Format settings, QPel            : No                                        @
@ Format settings, GMC             : No warppoints                             @
@ Format settings, Matrix          : Default                                   @
@ Codec ID                         : DX50                                      @
@ Codec ID/Hint                    : DivX 5                                    @
@ Duration                         : 1h 50mn                                   @
@ Bit rate                         : 1 384 Kbps                                @
@ Width                            : 720 pixels                                @
@ Height                           : 320 pixels                                @
@ Display aspect ratio             : 2025                                      @
@ Frame rate                       : 25.000 fps                                @
@ Resolution                       : 24 bits                                   @
@ Colorimetry                      : 4:2:0                                     @
@ Scan type                        : Progressive                               @
@ Bits/(Pixel*Frame)               : 0.240                                     @
@ Stream size                      : 1.07 GiB (78%)                            @
@ Writing library                  : DivX 2816                                 @
@                                                                              @
@ Audio                                                                        @
@ Format                           : AC-3                                      @
@ Format/Info                      : Audio Coding 3                            @
@ Codec ID                         : 2000                                      @
@ Duration                         : 1h 50mn                                   @
@ Bit rate mode                    : Constant                                  @
@ Bit rate                         : 384 Kbps                                  @
@ Channel(s)                       : 6 channels                                @
@ Channel positions                : Front: L C R, Surround: L R, LFE          @
@ Sampling rate                    : 48.0 KHz                                  @
@ Stream size                      : 303 MiB (22%)                             @
@ Alignment                        : Split accross interleaves                 @
@ Interleave, duration             : 80 ms (2.00 video frames)                 @
@ Interleave, preload duration     : 500 ms                                    @
@ Language                         : English                                   @
@ Subtitles                        : English                                   @
@                                                                              @
@ IMDb Rating                      : 6.3/10                                    @
@ IMDb URL                         : http://www.imdb.com/title/tt0106697/      @
@                                                                              @
@°°°°°°°°°°°°°°°°°°°°°°°°°°°°°°°°°°°°°°°°°°°°°°°°°°°°°°°°°°°°°°°°°°°°°°°°°°°°°°@
@                                                                              @
@ In 2032 archcriminal Simon Phoenix awakens from a 35-year deep freeze in     @
@ CryoPrison to find a serene,non-violent San Angeles ready for the taking.    @
@ Unable to deal with Phoenix's brutal 1990s style, officials seek an old-     @
@ fashioned cop to fight old-fashioned crime. They revive Sgt. John Spartan,   @
@ unjustly serving a CryoPrison sentence recause of his last encounter with    @
@ Phoenix.                                                                     @
@                                                                              @
@                                                                              @
@                                                                              @
@                                                                              @
@°°°°°°°°°°°°°°°°°°°°°°°°°°°°°°°°°°°°°°°°°°°°°°°°°°°°°°°°°°°°°°°°°°°°°°°°°°°°°°@
@                                                                              @
@ CAST:                                                                        @
@                                                                              @
@ Sylvester Stallone.........John Spartan                                      @
@ Wesley Snipes..............Simon Phoenix                                     @
@ Sandra Bullock.............Lenina Huxley                                     @
@ Nigel Hawthorne............Dr. Raymond Cocteau                               @
@ Benjamin Bratt.............Alfredo Garcia                                    @
@ Bob Gunton.................Chief George Earle                                @
@ Denis Leary................Edgar Friendly                                    @  
@                                                                              @
@°°°°°°°°°°°°°°°°°°°°°°°°°°°°°°°°°°°°°°°°°°°°°°°°°°°°°°°°°°°°°°°°°°°°°°°°°°°°°°@
@                                                                              @
@ Trackers:                                                                    @
@                                                                              @
@ http://tracker.publicbt.com:80/announce                                      @
@                                                                              @
@ http://tracker.publicbt.com/announce                                         @
@                                                                              @
@ http://tracker.ilibr.org:6969/announce                                       @
@                                                                              @
@ http://torrent-download.to:5869/announce                                     @
@                                                                              @
@ http://torrent-download.to:5869/announce.php                                 @
@                                                                              @
@ http://denis.stalker.h3q.com:6969/announce                                   @
@                                                                              @
@                                 @
@                                                                              @
@                                                                              @
@°°°°°°°°°°°°°°°°°°°°°°°°°°°°°°°°°°°°°°°°°°°°°°°°°°°°°°°°°°°°°°°°°°°°°°°°°°°°°°@
@                                                                              @
@                            Please remember to seed                           @
@                                                                              @
@                              Standalone Enabled                              @
@                                                                              @
@                               www.tornster.com                               @
@                                                                              @
@@@@@@@@@@@@@@@@@@@@@@@@@@@@@@@@@@@@@@@@@@@@@@@@@@@@@@@@@@@@@@@@@@@@@@@@@@@@@@@@